<?xml version="1.0" standalone="no"?><!DOCTYPE svg PUBLIC "-//W3C//DTD SVG 1.1//EN" "http://www.w3.org/Graphics/SVG/1.1/DTD/svg11.dtd"><svg t="1650193064010" class="icon" viewBox="0 0 1024 1024" version="1.1" xmlns="http://www.w3.org/2000/svg" p-id="1530" xmlns:xlink="http://www.w3.org/1999/xlink" width="16" height="16"><defs><style type="text/css"></style></defs><path d="M938.666667 437.76l-379.306667-361.386667a68.693333 68.693333 0 0 0-94.72 0L85.333333 437.76A68.693333 68.693333 0 0 0 132.693333 554.666667h16.64v350.293333A69.546667 69.546667 0 0 0 210.773333 981.333333h160.853334a69.546667 69.546667 0 0 0 61.44-76.373333v-220.16c0-19.2 9.813333-33.706667 18.773333-33.706667h120.32c8.96 0 18.773333 14.506667 18.773333 33.706667v221.44A69.546667 69.546667 0 0 0 652.373333 981.333333h160.853334a69.546667 69.546667 0 0 0 61.44-76.373333V554.666667h16.64A68.693333 68.693333 0 0 0 938.666667 437.76z m-106.666667 469.333333c0 18.773333-10.24 33.706667-18.773333 33.706667h-160.853334c-8.533333 0-18.773333-14.933333-18.773333-33.706667v-222.293333a69.12 69.12 0 0 0-61.44-76.373333h-120.32a69.12 69.12 0 0 0-61.44 76.373333v221.44c0 18.773333-10.24 33.706667-18.773333 33.706667H210.773333c-8.533333 0-18.773333-14.933333-18.773333-33.706667V554.666667h640z m83.2-409.173333a24.746667 24.746667 0 0 1-23.893333 16.213333H132.693333a26.026667 26.026667 0 0 1-17.92-42.666666l379.306667-360.96a25.6 25.6 0 0 1 35.84 0L909.226667 469.333333a24.746667 24.746667 0 0 1 5.973333 27.733334z" fill="" p-id="1531"></path></svg>