<?xml version="1.0" standalone="no"?><!DOCTYPE svg PUBLIC "-//W3C//DTD SVG 1.1//EN" "http://www.w3.org/Graphics/SVG/1.1/DTD/svg11.dtd"><svg t="1650285208202" class="icon" viewBox="0 0 1024 1024" version="1.1" xmlns="http://www.w3.org/2000/svg" p-id="1230" xmlns:xlink="http://www.w3.org/1999/xlink" width="16" height="16"><defs><style type="text/css"></style></defs><path d="M248.848384 488.433664c-2.44224 0-4.368384 0.3584-5.881856 0.961536 2.05312-0.622592 4.245504-0.961536 6.503424-0.961536L248.848384 488.433664 248.848384 488.433664zM923.78112 757.349376c0.067584-1.24928 0.228352-2.473984 0.49152-3.654656C923.983872 754.235392 923.830272 755.392512 923.78112 757.349376L923.78112 757.349376zM968.808448 260.566016c0.012288-0.048128 0.012288-0.109568 0.012288-0.15872l0-0.586752C968.819712 260.074496 968.819712 260.327424 968.808448 260.566016L968.808448 260.566016zM923.75552 260.492288c0 0.050176 0 0.100352 0.013312 0.154624-0.013312-0.272384-0.013312-0.548864-0.013312-0.826368L923.75552 260.492288 923.75552 260.492288zM950.928384 936.170496c-6.337536-47.193088-20.200448-92.761088-41.194496-135.438336-4.104192-8.342528-8.454144-16.544768-13.063168-24.587264-0.012288-0.024576-0.023552-0.049152-0.055296-0.073728-19.985408-33.847296-44.504064-65.275904-73.084928-93.328384l-0.012288-0.012288c-6.213632-6.096896-12.612608-12.04736-19.203072-17.818624-46.990336-41.17504-101.239808-71.711744-159.089664-90.281984 10.472448-5.801984 20.599808-12.299264 30.326784-19.497984 11.081728-8.165376 21.627904-17.234944 31.547392-27.153408 52.15232-52.160512 80.88576-121.516032 80.88576-195.283968s-28.734464-143.122432-80.88576-195.279872C655.88224 86.20544 588.090368 57.587712 515.835904 56.554496c-1.143808-0.012288-2.294784-0.024576-3.439616-0.024576-1.149952 0-2.294784 0.012288-3.437568 0.024576-72.254464 1.033216-140.053504 29.650944-191.264768 80.862208-52.151296 52.15744-80.886784 121.51296-80.886784 195.279872s28.735488 143.123456 80.886784 195.283968c9.918464 9.918464 20.46464 18.988032 31.5392 27.153408 9.728 7.19872 19.861504 13.696 30.333952 19.497984-57.849856 18.57024-112.100352 49.106944-159.090688 90.281984-6.588416 5.772288-12.99456 11.721728-19.202048 17.818624-28.604416 28.076032-53.154816 59.53024-73.152512 93.4144-4.606976 8.042496-8.957952 16.243712-13.067264 24.587264-20.995072 42.677248-34.850816 88.245248-41.194496 135.438336-2.024448 15.118336 8.582144 29.018112 23.69536 31.04768 1.242112 0.165888 2.491392 0.251904 3.71712 0.251904 1.120256 0 2.214912-0.06144 3.309568-0.202752 10.928128-2.3808 19.750912-11.2896 21.460992-22.992896 12.730368-87.353344 54.361088-166.731776 114.204672-227.178496 71.023616-71.760896 167.68512-116.861952 272.149504-117.041152l0.590848 0c104.237056 0.357376 200.6784 45.415424 271.558656 117.041152 59.838464 60.44672 101.475328 139.826176 114.204672 227.178496 1.711104 11.677696 10.497024 20.575232 21.394432 22.980608 0.023552 0 0.036864 0.012288 0.06144 0.012288 1.09568 0.142336 2.197504 0.202752 3.316736 0.202752 1.22368 0 2.466816-0.086016 3.716096-0.251904C942.35136 965.188608 952.957952 951.288832 950.928384 936.170496L950.928384 936.170496zM511.806464 553.636864c-0.560128 0-1.114112 0-1.667072-0.012288-103.074816-0.756736-194.973696-72.370176-220.090368-168.431616-0.277504-1.045504-0.55296-2.10432-0.805888-3.162112-3.933184-15.881216-6.025216-32.381952-6.025216-49.334272 0-16.951296 2.092032-33.642496 6.025216-49.800192 0.252928-1.084416 0.528384-2.153472 0.805888-3.2256 25.252864-98.465792 118.007808-176.729088 221.75744-176.729088l1.180672 0c103.744512 0 196.5056 78.26432 221.758464 176.729088 0.277504 1.072128 0.55296 2.141184 0.805888 3.2256 3.931136 16.157696 6.023168 32.848896 6.023168 49.800192 0 16.953344-2.092032 33.453056-6.023168 49.334272-0.252928 1.057792-0.529408 2.116608-0.805888 3.162112-25.116672 96.06144-117.016576 167.67488-220.096512 168.431616C513.708032 553.636864 512.759808 553.636864 511.806464 553.636864L511.806464 553.636864zM511.806464 553.636864" p-id="1231" fill="#d81e06"></path></svg>